<?xml version="1.0" standalone="no"?>
<!DOCTYPE svg PUBLIC "-//W3C//DTD SVG 20010904//EN"
 "http://www.w3.org/TR/2001/REC-SVG-20010904/DTD/svg10.dtd">
<svg version="1.0" xmlns="http://www.w3.org/2000/svg"
 width="700.000000pt" height="700.000000pt" viewBox="0 0 700.000000 700.000000"
 preserveAspectRatio="xMidYMid meet">
<metadata>
Created by potrace 1.14, written by Peter Selinger 2001-2017
</metadata>
<g transform="translate(0.000000,700.000000) scale(0.100000,-0.100000)"
fill="#000000" stroke="none">
<path d="M1185 6738 c4 -27 16 -130 20 -173 8 -81 15 -153 20 -180 2 -16 7
-59 11 -95 7 -74 9 -90 18 -180 4 -36 9 -76 11 -90 2 -14 7 -61 10 -105 4 -44
8 -82 10 -85 1 -3 6 -43 10 -90 4 -47 8 -87 10 -90 2 -3 6 -40 9 -82 4 -42 9
-85 11 -95 1 -11 6 -50 10 -88 3 -39 8 -81 10 -95 2 -14 6 -56 10 -93 3 -37 8
-76 10 -85 1 -9 6 -48 9 -87 9 -90 13 -126 22 -205 12 -100 10 -183 -10 -355
-2 -16 -7 -64 -11 -105 -8 -90 -13 -142 -30 -300 -3 -25 -7 -72 -10 -105 -4
-33 -8 -76 -10 -95 -3 -19 -7 -66 -10 -105 -3 -38 -8 -81 -10 -95 -2 -14 -7
-57 -10 -95 -9 -106 -13 -144 -20 -210 -11 -107 -14 -129 -20 -200 -3 -38 -8
-81 -10 -95 -2 -14 -7 -59 -10 -100 -3 -41 -8 -86 -10 -100 -2 -14 -7 -59 -10
-100 -8 -89 -13 -135 -22 -215 -11 -97 -7 -122 26 -162 17 -21 172 -227 344
-459 258 -345 318 -432 337 -485 12 -35 44 -125 69 -199 26 -75 52 -143 57
-152 8 -15 110 -126 239 -262 25 -27 67 -55 115 -76 82 -37 312 -142 430 -197
41 -20 98 -46 126 -59 29 -13 167 -77 308 -143 l256 -120 93 43 c50 24 117 55
147 69 30 14 98 45 150 70 52 24 118 54 145 67 28 12 100 46 160 74 61 29 199
92 307 141 l197 88 109 116 c161 171 167 179 195 261 120 347 117 340 191 439
39 53 76 102 83 111 101 126 535 717 535 729 1 26 -12 195 -17 211 -2 8 -6 53
-10 100 -4 47 -8 99 -10 115 -2 17 -7 59 -10 95 -3 36 -8 76 -10 90 -2 14 -6
61 -10 105 -3 44 -8 87 -10 95 -2 8 -7 53 -10 100 -4 47 -8 99 -10 115 -2 17
-7 59 -10 95 -3 36 -8 85 -11 110 -12 116 -15 147 -19 180 -2 19 -6 67 -10
105 -3 39 -8 81 -10 95 -3 14 -7 57 -10 95 -2 39 -7 86 -9 105 -3 19 -8 67
-11 105 -3 39 -8 81 -10 95 -23 136 -23 357 0 475 2 11 7 51 10 88 4 37 8 76
10 85 1 9 6 49 9 87 4 39 8 80 10 90 2 11 7 54 11 95 4 41 8 86 10 100 2 14 6
57 9 95 4 39 9 81 11 95 3 14 7 52 11 85 3 33 7 76 10 95 2 19 6 60 9 90 3 30
8 71 11 90 2 19 7 58 9 85 3 28 7 70 10 94 3 24 8 65 10 90 2 25 6 64 9 86 3
22 8 72 12 110 3 39 8 78 9 87 2 9 7 48 10 85 4 37 9 76 11 86 5 26 -4 21 -54
-35 -26 -28 -60 -66 -77 -83 -34 -36 -200 -215 -241 -260 -15 -16 -75 -81
-133 -144 -58 -63 -113 -122 -123 -133 -9 -10 -62 -68 -117 -127 -56 -60 -113
-121 -128 -137 -14 -16 -70 -76 -123 -134 -126 -137 -138 -150 -229 -249 -84
-92 -62 -77 -709 -495 l-383 -247 -119 78 c-65 43 -127 83 -137 88 -10 6 -63
40 -118 76 -95 63 -368 240 -555 361 -47 30 -100 72 -119 94 -19 21 -66 73
-105 114 -39 42 -111 120 -161 174 -49 55 -99 109 -110 121 -11 11 -49 52 -85
91 -80 85 -271 292 -331 358 -24 27 -64 70 -89 96 -54 57 -228 244 -253 273
-34 40 -117 126 -126 132 -6 3 -8 -5 -6 -17z"/>
</g>
</svg>
