<?xml version="1.0" encoding="UTF-8" standalone="no"?><!-- Generator: Gravit.io --><svg xmlns="http://www.w3.org/2000/svg" xmlns:xlink="http://www.w3.org/1999/xlink" style="isolation:isolate" viewBox="0 0 1280 1280" width="1280pt" height="1280pt"><defs><clipPath id="_clipPath_I5PlacJK7tfp905AywRLbX3yHDnx4qXR"><rect width="1280" height="1280"/></clipPath></defs><g clip-path="url(#_clipPath_I5PlacJK7tfp905AywRLbX3yHDnx4qXR)"><rect width="1280" height="1280" style="fill:rgb(0,0,0)" fill-opacity="0"/><path d=" M 487.087 1009.323 L 468.609 993.773 L 458.578 1009.323 L 468.609 1026.17 L 487.087 1009.323 Z " fill="rgb(170,27,87)"/><path d=" M 909.541 1082.54 L 859.544 1136.08 L 806.836 1160.073 L 796.373 1076.688 L 806.836 1005.008 L 867.296 1034.852 L 909.541 1082.54 Z " fill="rgb(145,26,75)"/><path d=" M 909.541 1082.54 L 859.544 1136.08 L 806.836 1160.073 L 796.373 1076.688 L 806.836 1005.008 L 867.296 1034.852 L 909.541 1082.54 Z " fill="rgb(170,27,87)"/><path d=" M 370.459 1082.54 L 420.456 1136.08 L 473.164 1160.073 L 483.627 1076.688 L 473.164 1005.008 L 412.704 1034.852 L 370.459 1082.54 Z " fill="rgb(170,27,87)"/><path d=" M 936.755 481.904 L 1022.282 420.789 L 1063.75 42.395 L 824.014 301.569 L 640 420.789 L 936.755 481.904 Z " fill="rgb(191,30,97)"/><path d=" M 343.245 481.904 L 257.718 420.789 L 216.25 42.395 L 455.986 301.569 L 640 420.789 L 343.245 481.904 Z " fill="rgb(191,30,97)"/><path d=" M 335.142 471.377 L 640 420.789 L 944.858 471.377 L 811.391 537.94 L 640 672.397 L 468.609 537.94 L 335.142 471.377 Z " fill="rgb(145,26,75)"/><path d=" M 216.25 835.358 L 257.718 420.789 L 343.245 470.033 L 473.164 534.826 L 396.376 523.163 L 216.25 835.358 Z " fill="rgb(170,27,87)"/><path d=" M 1063.75 835.358 L 1022.282 420.789 L 936.755 470.033 L 806.836 534.826 L 883.624 523.163 L 1063.75 835.358 Z " fill="rgb(170,27,87)"/><path d=" M 462.032 1013.412 L 370.459 1082.54 L 343.245 1005.008 L 216.25 835.358 L 571.319 820.126 L 473.164 1005.008 L 462.032 1013.412 Z " fill="rgb(208,39,110)"/><path d=" M 216.25 835.358 L 343.245 470.033 L 473.164 534.826 L 640 665.709 L 571.319 835.358 L 216.25 835.358 Z " fill="rgb(191,30,97)"/><path d=" M 909.541 1082.54 L 936.755 1005.008 L 1063.75 835.358 L 699.61 820.126 L 806.836 1005.008 L 909.541 1082.54 Z " fill="rgb(208,39,110)"/><path d=" M 1063.75 835.358 L 936.755 470.033 L 806.836 534.826 L 640 665.709 L 708.681 835.358 L 1063.75 835.358 Z " fill="rgb(191,30,97)"/><polygon points="806.836,1005.008,473.164,1005.008,640,665.709" fill="rgb(170,27,87)"/><polygon points="806.836,1160.073,640,1237.605,473.164,1160.073,473.164,1005.008,640,927.475,806.836,1005.008" fill="rgb(145,26,75)"/></g></svg>